<svg width="102" height="31" viewBox="0 0 102 31" fill="none" xmlns="http://www.w3.org/2000/svg">
<path d="M11.66 30.5C9.51333 30.5 7.6 30.1533 5.92 29.46C4.24 28.7667 2.92 27.74 1.96 26.38C1 25.0067 0.52 23.3 0.52 21.26C0.52 21.0733 0.52 20.8933 0.52 20.72C0.52 20.5467 0.52 20.36 0.52 20.16H7.66C7.66 20.3333 7.66 20.5 7.66 20.66C7.66 20.8067 7.66 20.96 7.66 21.12C7.66 22.28 7.99333 23.2 8.66 23.88C9.34 24.56 10.36 24.9 11.72 24.9C13.0667 24.9 14.1067 24.6933 14.84 24.28C15.5867 23.8667 15.96 23.1867 15.96 22.24C15.96 21.56 15.6467 20.9467 15.02 20.4C14.4067 19.8533 13.5733 19.3533 12.52 18.9C11.4667 18.4333 10.28 18 8.96 17.6C7.52 17.1467 6.17333 16.5467 4.92 15.8C3.66667 15.04 2.65333 14.0733 1.88 12.9C1.10667 11.7133 0.72 10.2467 0.72 8.5C0.72 6.71333 1.2 5.19333 2.16 3.94C3.13333 2.67333 4.44 1.70666 6.08 1.04C7.73333 0.359999 9.58667 0.0199986 11.64 0.0199986C13.76 0.0199986 15.6467 0.353332 17.3 1.02C18.9667 1.68667 20.28 2.67333 21.24 3.98C22.2 5.28666 22.68 6.9 22.68 8.82C22.68 9.02 22.68 9.20667 22.68 9.38C22.68 9.55333 22.68 9.73333 22.68 9.92H15.56C15.56 9.82667 15.56 9.70667 15.56 9.56C15.56 9.4 15.56 9.26667 15.56 9.16C15.56 8.08 15.26 7.22 14.66 6.58C14.06 5.92667 13.08 5.6 11.72 5.6C10.4 5.6 9.38 5.84 8.66 6.32C7.94 6.8 7.58 7.52 7.58 8.48C7.58 9.17333 7.86 9.76667 8.42 10.26C8.98 10.7533 9.74667 11.2067 10.72 11.62C11.6933 12.02 12.8 12.44 14.04 12.88C15.8133 13.4933 17.3667 14.1733 18.7 14.92C20.0333 15.6667 21.0667 16.6 21.8 17.72C22.5333 18.84 22.9 20.2733 22.9 22.02C22.9 23.8333 22.42 25.3733 21.46 26.64C20.5133 27.8933 19.1933 28.8533 17.5 29.52C15.8067 30.1733 13.86 30.5 11.66 30.5ZM39.7097 30.5C37.843 30.5 36.0764 30.1733 34.4097 29.52C32.7564 28.8533 31.2964 27.8733 30.0297 26.58C28.763 25.2867 27.763 23.6933 27.0297 21.8C26.3097 19.8933 25.9497 17.7 25.9497 15.22C25.9497 12.74 26.3097 10.5533 27.0297 8.66C27.7497 6.76666 28.7364 5.18 29.9897 3.9C31.2564 2.62 32.7164 1.65333 34.3697 0.999999C36.0364 0.346665 37.8164 0.0199986 39.7097 0.0199986C41.603 0.0199986 43.3764 0.346665 45.0297 0.999999C46.6964 1.65333 48.163 2.62 49.4297 3.9C50.6964 5.18 51.683 6.76666 52.3897 8.66C53.1097 10.5533 53.4697 12.74 53.4697 15.22C53.4697 17.7 53.103 19.8933 52.3697 21.8C51.6497 23.6933 50.6497 25.2867 49.3697 26.58C48.103 27.8733 46.6364 28.8533 44.9697 29.52C43.3164 30.1733 41.563 30.5 39.7097 30.5ZM39.7097 24.88C40.8297 24.88 41.883 24.58 42.8697 23.98C43.8564 23.3667 44.6564 22.3533 45.2697 20.94C45.8964 19.5267 46.2097 17.62 46.2097 15.22C46.2097 12.8067 45.8964 10.9067 45.2697 9.52C44.643 8.12 43.8364 7.12667 42.8497 6.54C41.863 5.94 40.8164 5.64 39.7097 5.64C38.603 5.64 37.5497 5.94 36.5497 6.54C35.563 7.12667 34.7564 8.12 34.1297 9.52C33.5164 10.9067 33.2097 12.8067 33.2097 15.22C33.2097 17.6333 33.5164 19.5467 34.1297 20.96C34.7564 22.36 35.563 23.3667 36.5497 23.98C37.5497 24.58 38.603 24.88 39.7097 24.88ZM61.1966 5.9L64.4166 2.6V14.68L62.2166 12.94H74.3366V18.36H62.2166L64.4166 16.48V30H57.2966V0.5H76.1166V5.9H61.1966ZM76.21 30L83.31 0.479999H94.63L101.71 30H94.39L88.97 4.78H89.01L83.51 30H76.21ZM81.85 23.48V18.02H96.13V23.48H81.85Z" fill="white"/>
</svg>
